<?xml version="1.0" encoding="utf-8"?>
<!-- Generator: Adobe Illustrator 21.1.0, SVG Export Plug-In . SVG Version: 6.00 Build 0)  -->
<svg version="1.1" xmlns="http://www.w3.org/2000/svg" xmlns:xlink="http://www.w3.org/1999/xlink" x="0px" y="0px"
	 viewBox="0 0 510 295" style="enable-background:new 0 0 510 295;" xml:space="preserve">
<style type="text/css">
	.st0{fill:none;stroke:#000000;stroke-width:2;stroke-miterlimit:10;}
	.st1{fill:#65A8A1;stroke:#000000;stroke-width:2;stroke-miterlimit:10;}
	.st2{fill:#FFFFFF;stroke:#000000;stroke-width:2;stroke-miterlimit:10;}
	.st3{fill:#F99DCB;stroke:#000000;stroke-width:2;stroke-miterlimit:10;}
	.st4{stroke:#000000;stroke-width:2;stroke-miterlimit:10;}
	.st5{font-family:'MyriadPro-Regular';}
	.st6{font-size:12px;}
	.st7{font-family:'MyriadPro-Bold';}
</style>
<g id="Layer_1">
	<g>
		<path class="st0" d="M142,147.1"/>
		<g>
			<rect x="145" y="1.5" class="st1" width="220" height="293"/>
			<g>
				<rect x="160" y="16.5" class="st2" width="190" height="165"/>
				<g>
					<rect x="176" y="62.5" class="st3" width="160" height="42"/>
				</g>
				<g>
					<rect x="175" y="122.5" class="st3" width="160" height="42"/>
				</g>
			</g>
			<g>
				<rect x="160" y="233.5" class="st2" width="190" height="45"/>
			</g>
			<g>
				<g>
					<line class="st0" x1="244" y1="182.5" x2="244" y2="224.5"/>
					<polygon class="st4" points="244,230.5 239,224.5 244,224.5 249,224.5 					"/>
				</g>
				<g>
					<line class="st0" x1="266" y1="232.5" x2="266" y2="190.5"/>
					<polygon class="st4" points="266,184.5 271,190.5 266,190.5 261,190.5 					"/>
				</g>
			</g>
		</g>
		<g>
			<g>
				<line class="st0" x1="86" y1="146.5" x2="136" y2="146.5"/>
				<polygon class="st4" points="142,146.5 136,151.5 136,146.5 136,141.5 				"/>
			</g>
			<g>
				<rect x="1" y="114.5" class="st0" width="85" height="65"/>
			</g>
		</g>
		<g>
			<g>
				<line class="st0" x1="365" y1="145.5" x2="415" y2="145.5"/>
				<polygon class="st4" points="421,145.5 415,150.5 415,145.5 415,140.5 				"/>
			</g>
			<rect x="424" y="113.5" class="st0" width="85" height="65"/>
		</g>
	</g>
</g>
<g id="Layer_2">
	<text transform="matrix(1 0 0 1 220.8242 35)"><tspan x="0" y="0" class="st5 st6">Централна</tspan><tspan x="-31" y="14.4" class="st5 st6">процесорска jединица</tspan></text>
	<text transform="matrix(1 0 0 1 317.0091 35)" class="st7 st6">CPU</text>
	<text transform="matrix(1 0 0 1 203.1411 86.8334)" class="st5 st6">контролна јединица</text>
	<text transform="matrix(1 0 0 1 199.3491 138.3714)"><tspan x="0" y="0" class="st5 st6">аритметичко-логичка</tspan><tspan x="32.9" y="14.4" class="st5 st6">јединица</tspan></text>
	<text transform="matrix(1 0 0 1 230.9443 259.3031)" class="st5 st6">меморија</text>
	<text transform="matrix(1 0 0 1 25.554 141.5002)"><tspan x="0" y="0" class="st5 st6">улазни</tspan><tspan x="1" y="14.4" class="st5 st6">уређај</tspan></text>
	<text transform="matrix(1 0 0 1 445.47 141.5004)"><tspan x="0" y="0" class="st5 st6">излазни</tspan><tspan x="4.1" y="14.4" class="st5 st6">уређај</tspan></text>
</g>
</svg>
